# xmcd
#
# Track frame offsets:
#	150
#	12425
#	26913
#	46175
#	61168
#	69685
#	85900
#	101458
#	114615
#	127305
#	139048
#	152015
#	167340
#	179847
#	200895
#	214615
#	225565
#	236955
#	256103
#	270133
#
# Disc length: 3776 seconds
#
# Revision: 0
# Processed by: cddbd v1.5.2PL0 Copyright (c) Steve Scherf et al.
# Submitted via: EasyCDDAExtractor 10.0.6.1
#
DISCID=1c0ebe14
DTITLE=Various Artist - The Eddie Crook Co Vol.1995-07
DYEAR=1995
DGENRE=Gospel
TTITLE0=The Hunts - He Painted My Sin
TTITLE1=Hastys - What A Beautiful Day
TTITLE2=Tina Sadler - He Keeps Blessing Me
TTITLE3=Roarks - I've Just Seen Jesus
TTITLE4=Larry Petree - Wanna Be, Gonna Be, Someday Will Be
TTITLE5=Scott Thomas Singers - Just Look What Jesus Did For Me
TTITLE6=Paul Tuttle - Eye On The Sky
TTITLE7=Mast Brothers - Lord I Love You
TTITLE8=Watkins Family - Jesus Carried Me
TTITLE9=Singing Tolers - Lord Send Down The Rain
TTITLE10=David Pinell - He Can
TTITLE11=Elizabeth Bracewell - Lost In The Presence
TTITLE12=Doorway Singers - I Love You With Tears
TTITLE13=Barry Branham - You've Got To Be Born Again
TTITLE14=The Van Houtens - Come To The Altar
TTITLE15=Michael Cassidy - Anchor AtThe Rock
TTITLE16=The Clark Family - Ain't That Just Like Jesus
TTITLE17=Janice Stillman - The Mountain Will Melt
TTITLE18=The Singing Smith Family - Miracle Working Man
TTITLE19=Tim Livingston - Over The Next Hill
EXTD=
EXTT0=
EXTT1=
EXTT2=
EXTT3=
EXTT4=
EXTT5=
EXTT6=
EXTT7=
EXTT8=
EXTT9=
EXTT10=
EXTT11=
EXTT12=
EXTT13=
EXTT14=
EXTT15=
EXTT16=
EXTT17=
EXTT18=
EXTT19=
PLAYORDER=
